<?xml version="1.0" standalone="no"?>
<!DOCTYPE svg PUBLIC "-//W3C//DTD SVG 20010904//EN"
 "http://www.w3.org/TR/2001/REC-SVG-20010904/DTD/svg10.dtd">
<svg version="1.0" xmlns="http://www.w3.org/2000/svg"
 width="10pt" height="10pt" viewBox="0 0 1204.000000 1280.000000"
 preserveAspectRatio="xMidYMid meet">
<metadata>
Created by potrace 1.15, written by Peter Selinger 2001-2017
</metadata>
<g transform="translate(0.000000,1280.000000) scale(0.100000,-0.100000)"
fill="#ffffff"stroke="none">
<path d="M4310 12794 c-426 -36 -724 -90 -1050 -190 -703 -217 -1304 -554
-1845 -1036 -70 -62 -159 -139 -199 -171 -141 -114 -314 -277 -413 -389 -443
-500 -689 -1041 -779 -1708 -25 -186 -25 -610 0 -795 64 -478 172 -840 375
-1260 236 -488 519 -884 916 -1280 304 -304 576 -517 950 -742 308 -186 592
-319 890 -418 243 -81 410 -120 675 -157 145 -20 583 -17 740 5 564 79 1085
286 1760 696 73 45 136 81 140 81 16 0 355 -357 470 -495 427 -513 779 -1034
1638 -2425 369 -598 533 -857 735 -1160 449 -674 772 -1052 1054 -1234 129
-83 198 -102 408 -113 428 -21 793 153 1016 484 149 220 240 530 243 823 1
100 -3 127 -27 202 -56 177 -194 413 -381 652 -374 478 -986 1070 -2171 2102
-771 670 -891 776 -1190 1050 -342 312 -679 653 -765 774 l-20 28 120 107
c334 301 613 690 788 1100 182 427 263 870 249 1369 -13 450 -99 876 -269
1326 -321 850 -935 1645 -1628 2110 -539 362 -1095 566 -1755 646 -122 14
-574 27 -675 18z m-1135 -734 c-11 -4 -96 -26 -190 -49 -334 -80 -688 -218
-978 -382 -96 -55 -317 -198 -352 -229 -33 -29 -52 -36 -30 -11 24 28 205 162
300 223 314 200 661 340 1025 412 235 47 259 51 225 36z"/>
</g>
</svg>
